<?xml version="1.0" encoding="UTF-8" standalone="no"?>
<!DOCTYPE svg PUBLIC "-//W3C//DTD SVG 1.1//EN" "http://www.w3.org/Graphics/SVG/1.1/DTD/svg11.dtd">
<svg width="100%" height="100%" viewBox="0 0 3000 1169" version="1.1" xmlns="http://www.w3.org/2000/svg" xmlns:xlink="http://www.w3.org/1999/xlink" xml:space="preserve" xmlns:serif="http://www.serif.com/" style="fill-rule:evenodd;clip-rule:evenodd;stroke-linejoin:round;stroke-miterlimit:1.41421;">
    <g transform="matrix(1,0,0,3.09608,901.276,-2461.49)">
        <rect x="805.457" y="863.524" width="36.172" height="285.479" style="fill:rgb(61,54,74);"/>
    </g>
    <g transform="matrix(1.15706,0,0,1.15706,201.445,-1476.64)">
        <text x="1346.98px" y="2221.31px" style="font-family:'Futura-Medium', 'Futura', sans-serif;font-weight:500;font-size:300px;fill:rgb(61,54,74);">a<tspan x="1516.66px 1670.96px 1840.64px 1996.41px " y="2221.31px 2221.31px 2221.31px 2221.31px ">ndem</tspan></text>
        <text x="2283.14px" y="2221.31px" style="font-family:'Futura-Medium', 'Futura', sans-serif;font-weight:500;font-size:300px;fill:rgb(61,54,74);">c</text>
    </g>
    <g transform="matrix(1.15706,0,0,1.15706,-2499.27,-2202.67)">
        <text x="2284.28px" y="2221.31px" style="font-family:'Futura-Medium', 'Futura', sans-serif;font-weight:500;font-size:165.938px;fill:rgb(115,110,126);">F<tspan x="2361.52px 2455.62px 2529.06px 2613.84px 2675.53px 2721.1px 2815.2px 2900.55px 2946.11px 3019.55px 3113.65px 3199px 3240.19px 3326.35px 3411.69px " y="2221.31px 2221.31px 2221.31px 2221.31px 2221.31px 2221.31px 2221.31px 2221.31px 2221.31px 2221.31px 2221.31px 2221.31px 2221.31px 2221.31px 2221.31px ">ocus on content</tspan></text>
        <text x="2430.77px" y="2392.19px" style="font-family:'Futura-Medium', 'Futura', sans-serif;font-weight:500;font-size:165.938px;fill:rgb(115,110,126);">S<tspan x="2524.71px 2564.44px 2650.44px 2686.12px 2772.28px 2817.84px 2853.52px 2938.87px 2984.44px 3078.29px 3123.86px 3217.71px 3253.39px 3289.07px 3374.42px " y="2392.19px 2392.19px 2392.19px 2392.19px 2392.19px 2392.19px 2392.19px 2392.19px 2392.19px 2392.19px 2392.19px 2392.19px 2392.19px 2392.19px 2392.19px ">tyle in a blink</tspan></text>
        <text x="2158.26px" y="2563.07px" style="font-family:'Futura-Medium', 'Futura', sans-serif;font-weight:500;font-size:165.938px;fill:rgb(115,110,126);">S<tspan x="2249.36px 2343.21px 2398.5px 2484.66px 2578.52px 2672.37px 2717.94px 2799.32px 2893.41px 2978.2px 3034.62px 3080.18px 3115.87px 3209.72px 3295.88px 3389.74px " y="2563.07px 2563.07px 2563.07px 2563.07px 2563.07px 2563.07px 2563.07px 2563.07px 2563.07px 2563.07px 2563.07px 2563.07px 2563.07px 2563.07px 2563.07px 2563.07px ">pread your ideas</tspan></text>
    </g>
    <g transform="matrix(0.905555,0,0,0.905555,1163.04,-595.977)">
        <circle cx="1340.93" cy="1104.28" r="18.667" style="fill:rgb(215,215,8);"/>
    </g>
    <g transform="matrix(1.00499,0,0,1.00499,1269.91,-1700.59)">
        <rect x="452.953" y="1897.67" width="33.84" height="265.709" style="fill:rgb(215,215,8);"/>
    </g>
    <g transform="matrix(1.00499,0,0,1.00499,1490.16,-59.8101)">
        <path d="M273.27,170.775C282.312,177.614 288.159,188.458 288.159,200.657C288.159,221.323 271.381,238.101 250.715,238.101C230.049,238.101 213.271,221.323 213.271,200.657C213.271,188.458 219.118,177.614 228.159,170.775C226.258,174.347 225.18,178.423 225.18,182.748C225.18,196.842 236.622,208.283 250.715,208.283C264.808,208.283 276.25,196.842 276.25,182.748C276.25,178.423 275.172,174.347 273.27,170.775Z" style="fill:rgb(61,54,74);"/>
    </g>
    <g transform="matrix(1.00499,0,0,-1.00499,1269.91,2711.72)">
        <rect x="452.953" y="1897.67" width="33.84" height="265.709" style="fill:rgb(215,215,8);"/>
    </g>
    <g transform="matrix(1.00499,0,0,1.00499,1490.16,-59.8101)">
        <path d="M228.159,954.36C219.118,947.522 213.271,936.678 213.271,924.478C213.271,903.813 230.049,887.035 250.715,887.035C271.381,887.035 288.159,903.813 288.159,924.478C288.159,936.678 282.312,947.522 273.27,954.36C275.172,950.789 276.25,946.713 276.25,942.387C276.25,928.294 264.808,916.852 250.715,916.852C236.622,916.852 225.18,928.294 225.18,942.387C225.18,946.713 226.258,950.789 228.159,954.36Z" style="fill:rgb(61,54,74);"/>
    </g>
    <g transform="matrix(1.00499,0,0,0.792824,2344.32,-622.321)">
        <rect x="452.953" y="1897.67" width="33.84" height="265.709" style="fill:rgb(215,215,8);"/>
    </g>
    <g transform="matrix(1.00499,0,0,1.00499,1413.52,-112.154)">
        <path d="M1418.61,895.146C1427.65,901.984 1433.5,912.829 1433.5,925.028C1433.5,945.694 1416.72,962.472 1396.06,962.472C1375.39,962.472 1358.61,945.694 1358.61,925.028C1358.61,912.829 1364.46,901.984 1373.5,895.146C1371.6,898.718 1370.52,902.793 1370.52,907.119C1370.52,921.212 1381.96,932.654 1396.06,932.654C1410.15,932.654 1421.59,921.212 1421.59,907.119C1421.59,902.793 1420.51,898.718 1418.61,895.146Z" style="fill:rgb(61,54,74);"/>
    </g>
    <g transform="matrix(0.692881,0.727961,-0.574278,0.546603,3113.52,-1075.04)">
        <rect x="452.953" y="1897.67" width="33.84" height="265.709" style="fill:rgb(215,215,8);"/>
    </g>
    <g transform="matrix(1.00499,0,0,1.00499,1490.16,-59.8101)">
        <path d="M938.704,313.632C939.985,324.895 936.16,336.607 927.324,345.017C912.355,359.265 888.634,358.68 874.387,343.71C860.139,328.741 860.725,305.021 875.694,290.773C884.53,282.363 896.416,279.121 907.603,280.956C903.705,282.041 900.009,284.07 896.876,287.052C886.668,296.769 886.269,312.945 895.985,323.153C905.701,333.361 921.877,333.761 932.086,324.044C935.219,321.062 937.428,317.471 938.704,313.632Z" style="fill:rgb(61,54,74);"/>
    </g>
    <g transform="matrix(0.907695,0.431393,-0.34032,0.716067,2561.07,-1459.35)">
        <rect x="452.953" y="1897.67" width="33.84" height="265.709" style="fill:rgb(215,215,8);"/>
    </g>
    <g transform="matrix(1.00499,0,0,1.00499,1490.16,-59.8101)">
        <path d="M867.463,66.396C864.212,68.805 861.489,72.024 859.632,75.93C853.583,88.659 859.006,103.905 871.734,109.954C884.463,116.004 899.708,110.581 905.758,97.852C907.615,93.945 908.391,89.802 908.206,85.759C913.437,95.817 914.063,108.121 908.826,119.139C899.956,137.804 877.6,145.756 858.935,136.885C840.27,128.014 832.318,105.659 841.189,86.994C846.426,75.975 856.361,68.691 867.463,66.396Z" style="fill:rgb(61,54,74);"/>
    </g>
    <g transform="matrix(0.159368,0.992276,-0.782792,0.125723,3995.98,-334.343)">
        <rect x="452.953" y="1897.67" width="33.84" height="265.709" style="fill:rgb(215,215,8);"/>
    </g>
    <g transform="matrix(1.00499,0,0,1.00499,1490.16,-59.8101)">
        <path d="M1186.43,435.475C1181.11,445.487 1171.33,452.979 1159.29,454.914C1138.88,458.191 1119.66,444.286 1116.38,423.881C1113.1,403.477 1127.01,384.251 1147.41,380.974C1159.46,379.039 1171.09,383.092 1179.28,390.935C1175.45,389.624 1171.25,389.206 1166.98,389.892C1153.07,392.127 1143.59,405.238 1145.82,419.153C1148.06,433.068 1161.17,442.55 1175.08,440.316C1179.35,439.63 1183.21,437.919 1186.43,435.475Z" style="fill:rgb(61,54,74);"/>
    </g>
    <g transform="matrix(0.776234,0.638334,-0.503573,0.61236,2774.06,-1336.4)">
        <rect x="452.953" y="1897.67" width="33.84" height="265.709" style="fill:rgb(215,215,8);"/>
    </g>
    <g transform="matrix(1.00499,0,0,1.00499,1490.16,-59.8101)">
        <path d="M766.875,126.002C769.515,137.027 767.143,149.116 759.394,158.539C746.268,174.501 722.653,176.803 706.691,163.677C690.729,150.551 688.427,126.935 701.553,110.973C709.301,101.551 720.705,96.888 732.032,97.35C728.295,98.9 724.874,101.364 722.126,104.705C713.175,115.59 714.745,131.695 725.63,140.646C736.515,149.598 752.62,148.028 761.571,137.142C764.319,133.801 766.075,129.969 766.875,126.002Z" style="fill:rgb(61,54,74);"/>
    </g>
    <g transform="matrix(6.15381e-17,-1.00499,-1.00499,-6.15381e-17,3948.28,977.786)">
        <rect x="452.953" y="1897.67" width="33.84" height="265.709" style="fill:rgb(215,215,8);"/>
    </g>
    <g transform="matrix(1.00499,0,0,1.00499,1490.16,-59.8101)">
        <path d="M642.507,585.123C635.669,594.165 624.825,600.012 612.626,600.012C591.96,600.012 575.182,583.234 575.182,562.568C575.182,541.902 591.96,525.124 612.626,525.124C624.825,525.124 635.669,530.971 642.507,540.012C638.936,538.111 634.86,537.033 630.534,537.033C616.441,537.033 604.999,548.475 604.999,562.568C604.999,576.661 616.441,588.103 630.534,588.103C634.86,588.103 638.936,587.025 642.507,585.123Z" style="fill:rgb(61,54,74);"/>
    </g>
    <g transform="matrix(-0.710637,-0.710637,-0.710637,0.710637,3636.02,-720.513)">
        <rect x="452.953" y="1897.67" width="33.84" height="265.709" style="fill:rgb(215,215,8);"/>
    </g>
    <g transform="matrix(1.00499,0,0,1.00499,1490.16,-59.8101)">
        <path d="M543.703,301.478C545.261,312.707 541.727,324.509 533.101,333.135C518.488,347.748 494.761,347.748 480.148,333.135C465.535,318.522 465.535,294.795 480.148,280.182C488.774,271.556 500.576,268.022 511.805,269.58C507.935,270.761 504.291,272.88 501.232,275.939C491.267,285.904 491.267,302.086 501.232,312.051C511.197,322.016 527.378,322.016 537.344,312.051C540.402,308.992 542.522,305.348 543.703,301.478Z" style="fill:rgb(61,54,74);"/>
    </g>
    <g transform="matrix(-0.710637,0.710637,-0.710637,-0.710637,3636.02,1731.65)">
        <rect x="452.953" y="1897.67" width="33.84" height="265.709" style="fill:rgb(215,215,8);"/>
    </g>
    <g transform="matrix(1.00499,0,0,1.00499,1490.16,-59.8101)">
        <path d="M511.805,855.556C500.576,857.114 488.774,853.58 480.148,844.954C465.535,830.341 465.535,806.613 480.148,792.001C494.761,777.388 518.488,777.388 533.101,792.001C541.727,800.627 545.261,812.429 543.703,823.658C542.522,819.788 540.402,816.143 537.344,813.085C527.378,803.119 511.197,803.119 501.232,813.085C491.267,823.05 491.267,839.231 501.232,849.197C504.291,852.255 507.935,854.375 511.805,855.556Z" style="fill:rgb(61,54,74);"/>
    </g>
    <g transform="matrix(-0.384594,0.928492,-0.928492,-0.384594,3961.06,913.553)">
        <rect x="452.953" y="1897.67" width="33.84" height="265.709" style="fill:rgb(215,215,8);"/>
    </g>
    <g transform="matrix(1.00499,0,0,1.00499,1490.16,-59.8101)">
        <path d="M604.052,733.339C594.275,739.075 582.018,740.327 570.748,735.658C551.655,727.75 542.575,705.829 550.483,686.736C558.392,667.643 580.313,658.563 599.406,666.472C610.676,671.14 618.458,680.691 621.315,691.662C618.743,688.538 615.39,685.983 611.394,684.327C598.374,678.934 583.424,685.126 578.031,698.147C572.638,711.167 578.83,726.116 591.851,731.51C595.847,733.165 600.025,733.729 604.052,733.339Z" style="fill:rgb(61,54,74);"/>
    </g>
    <g transform="matrix(0.928492,0.384594,-0.384594,0.928492,2150.11,-1713.37)">
        <rect x="452.953" y="1897.67" width="33.84" height="265.709" style="fill:rgb(215,215,8);"/>
    </g>
    <g transform="matrix(1.00499,0,0,1.00499,1490.16,-59.8101)">
        <path d="M379.809,191.967C376.685,194.539 374.13,197.892 372.474,201.889C367.081,214.909 373.273,229.858 386.294,235.252C399.314,240.645 414.264,234.453 419.657,221.432C421.312,217.436 421.876,213.258 421.486,209.23C427.222,219.008 428.474,231.264 423.806,242.535C415.897,261.628 393.976,270.708 374.883,262.799C355.79,254.891 346.71,232.97 354.619,213.877C359.287,202.606 368.839,194.825 379.809,191.967Z" style="fill:rgb(61,54,74);"/>
    </g>
    <g transform="matrix(0.928492,0.384594,0.384594,-0.928492,461.591,2363.08)">
        <rect x="452.953" y="1897.67" width="33.84" height="265.709" style="fill:rgb(215,215,8);"/>
    </g>
    <g transform="matrix(1.00499,0,0,1.00499,1490.16,-59.8101)">
        <path d="M79.944,915.905C74.207,906.127 72.956,893.871 77.624,882.601C85.533,863.508 107.454,854.428 126.547,862.336C145.639,870.245 154.72,892.166 146.811,911.259C142.143,922.529 132.591,930.311 121.621,933.168C124.745,930.596 127.3,927.243 128.956,923.247C134.349,910.227 128.156,895.277 115.136,889.884C102.116,884.491 87.166,890.683 81.773,903.703C80.118,907.7 79.554,911.878 79.944,915.905Z" style="fill:rgb(61,54,74);"/>
    </g>
    <g transform="matrix(0.928492,-0.384594,0.384594,0.928492,461.591,-1351.95)">
        <rect x="452.953" y="1897.67" width="33.84" height="265.709" style="fill:rgb(215,215,8);"/>
    </g>
    <g transform="matrix(1.00499,0,0,1.00499,1490.16,-59.8101)">
        <path d="M121.621,191.967C132.591,194.825 142.143,202.606 146.811,213.877C154.72,232.97 145.639,254.891 126.547,262.799C107.454,270.708 85.533,261.628 77.624,242.535C72.956,231.264 74.207,219.008 79.944,209.23C79.554,213.258 80.118,217.436 81.773,221.432C87.166,234.453 102.116,240.645 115.136,235.252C128.156,229.858 134.349,214.909 128.956,201.889C127.3,197.892 124.745,194.539 121.621,191.967Z" style="fill:rgb(61,54,74);"/>
    </g>
    <g transform="matrix(0.928492,-0.384594,-0.384594,-0.928492,2150.11,2724.5)">
        <rect x="452.953" y="1897.67" width="33.84" height="265.709" style="fill:rgb(215,215,8);"/>
    </g>
    <g transform="matrix(1.00499,0,0,1.00499,1490.16,-59.8101)">
        <path d="M379.809,933.168C368.839,930.311 359.287,922.529 354.619,911.259C346.71,892.166 355.79,870.245 374.883,862.336C393.976,854.428 415.897,863.508 423.806,882.601C428.474,893.871 427.222,906.127 421.486,915.905C421.876,911.878 421.312,907.7 419.657,903.703C414.264,890.683 399.314,884.491 386.294,889.884C373.273,895.277 367.081,910.227 372.474,923.247C374.13,927.243 376.685,930.596 379.809,933.168Z" style="fill:rgb(61,54,74);"/>
    </g>
    <g transform="matrix(-0.384594,-0.928492,-0.928492,0.384594,3961.06,97.5802)">
        <rect x="452.953" y="1897.67" width="33.84" height="265.709" style="fill:rgb(215,215,8);"/>
    </g>
    <g transform="matrix(1.00499,0,0,1.00499,1490.16,-59.8101)">
        <path d="M621.315,433.474C618.458,444.444 610.676,453.996 599.406,458.664C580.313,466.573 558.392,457.492 550.483,438.4C542.575,419.307 551.655,397.386 570.748,389.477C582.018,384.809 594.275,386.06 604.052,391.797C600.025,391.407 595.847,391.971 591.851,393.626C578.83,399.019 572.638,413.969 578.031,426.989C583.424,440.009 598.374,446.202 611.394,440.808C615.39,439.153 618.743,436.598 621.315,433.474Z" style="fill:rgb(61,54,74);"/>
    </g>
    <g transform="matrix(0.905555,0,0,0.905555,1602.33,92.4078)">
        <circle cx="1340.93" cy="1104.28" r="18.667" style="fill:rgb(215,215,8);"/>
    </g>
    <g transform="matrix(0.905555,0,0,0.905555,983.332,-550.954)">
        <circle cx="1340.93" cy="1104.28" r="18.667" style="fill:rgb(215,215,8);"/>
    </g>
    <g transform="matrix(0.905555,0,0,0.905555,1038.6,-710.733)">
        <circle cx="1340.93" cy="1104.28" r="18.667" style="fill:rgb(215,215,8);"/>
    </g>
    <g transform="matrix(0.905555,0,0,0.905555,836.983,-713.776)">
        <circle cx="1340.93" cy="1104.28" r="18.667" style="fill:rgb(215,215,8);"/>
    </g>
    <g transform="matrix(0.905555,0,0,0.905555,515.948,-521.628)">
        <circle cx="1340.93" cy="1104.28" r="18.667" style="fill:rgb(215,215,8);"/>
    </g>
    <g transform="matrix(0.905555,0,0,0.905555,516.002,-465.644)">
        <circle cx="1340.93" cy="1104.28" r="18.667" style="fill:rgb(215,215,8);"/>
    </g>
    <g transform="matrix(0.905555,0,0,0.905555,557.757,-494.664)">
        <circle cx="1340.93" cy="1104.28" r="18.667" style="fill:rgb(215,215,8);"/>
    </g>
    <g transform="matrix(0.836624,-0.346541,0.346541,0.836624,247.919,72.6707)">
        <circle cx="1340.93" cy="1104.28" r="18.667" style="fill:rgb(215,215,8);"/>
    </g>
    <g transform="matrix(0.836624,-0.346541,0.346541,0.836624,258.82,61.6609)">
        <circle cx="1340.93" cy="1104.28" r="18.667" style="fill:rgb(215,215,8);"/>
    </g>
    <g transform="matrix(0.836624,-0.346541,0.346541,0.836624,271.239,30.6312)">
        <circle cx="1340.93" cy="1104.28" r="18.667" style="fill:rgb(215,215,8);"/>
    </g>
    <g transform="matrix(0.836624,-0.346541,0.346541,0.836624,263.685,44.1732)">
        <circle cx="1340.93" cy="1104.28" r="18.667" style="fill:rgb(215,215,8);"/>
    </g>
    <g transform="matrix(0.836624,-0.346541,0.346541,0.836624,260.077,29.9027)">
        <circle cx="1340.93" cy="1104.28" r="18.667" style="fill:rgb(215,215,8);"/>
    </g>
    <g transform="matrix(0.836624,-0.346541,0.346541,0.836624,244.165,20.8275)">
        <circle cx="1340.93" cy="1104.28" r="18.667" style="fill:rgb(215,215,8);"/>
    </g>
</svg>
